<?xml version="1.0" encoding="utf-8"?>
<!-- Generator: Adobe Illustrator 26.0.2, SVG Export Plug-In . SVG Version: 6.00 Build 0)  -->
<svg version="1.1" id="Calque_1" xmlns="http://www.w3.org/2000/svg" xmlns:xlink="http://www.w3.org/1999/xlink" x="0px" y="0px"
	 viewBox="0 0 50 50" style="enable-background:new 0 0 50 50;" xml:space="preserve">
<path d="M25,49.9c-6.6,0-13.2,0-19.8,0c-1,0-2-0.3-2.8-0.9c-0.9-0.6-1.6-1.5-2-2.6c-0.2-0.5-0.3-1-0.3-1.5c0-13.3,0-26.7,0-40
	c0-1,0.4-1.9,0.9-2.7c0.6-0.8,1.4-1.5,2.4-1.8c0.5-0.2,1-0.3,1.4-0.3c13.3,0,26.7,0,40,0c1,0,2,0.3,2.8,0.9c0.9,0.6,1.6,1.5,2,2.6
	c0.2,0.5,0.3,1,0.3,1.5c0,13.3,0,26.7,0,40c0,1-0.4,1.9-0.9,2.7c-0.6,0.8-1.4,1.5-2.4,1.8c-0.5,0.2-1,0.3-1.4,0.3
	C38.4,49.9,31.7,49.9,25,49.9z M41.1,42.2c0.1-0.2,0.2-0.3,0.2-0.4c0.4-0.6,0.7-1.3,1.1-1.9c0.4-0.6,0.7-1.2,1.1-1.8
	c0.2-0.4,0.4-0.8,0.7-1.2c0.4-0.7,0.8-1.4,0.9-2.2c0-0.2,0-0.4,0-0.6c0-0.2-0.1-0.4-0.1-0.6c0-0.5-0.3-0.9-0.5-1.3
	c-0.4-0.8-0.9-1.5-1.3-2.3c-0.4-0.6-0.7-1.2-1.1-1.8c-0.3-0.5-0.6-1-0.9-1.6c-0.3-0.5-0.6-1-0.9-1.5c-0.2-0.4-0.5-0.8-0.7-1.2
	c-0.4-0.6-0.7-1.3-1.1-1.9c-0.4-0.7-0.9-1.5-1.3-2.2c-0.4-0.6-0.7-1.2-1-1.8c-0.3-0.5-0.6-1-0.9-1.5c-0.5-0.9-1-1.7-1.5-2.6
	c-0.5-0.9-1-1.8-1.6-2.7c-0.3-0.6-0.7-1.2-1-1.8c-0.5-0.7-1-1.2-1.8-1.5c-0.6-0.2-1.1-0.4-1.8-0.4c-2.1,0-4.1,0-6.2,0
	c-0.1,0-0.2,0-0.3,0c-0.2,0-0.2,0.1-0.1,0.2c0.3,0.5,0.6,1,0.9,1.4c0.4,0.7,0.9,1.5,1.3,2.2c0.3,0.6,0.7,1.2,1,1.8
	c0.3,0.5,0.6,1,0.9,1.6c0.3,0.6,0.7,1.2,1,1.8c0.3,0.4,0.5,0.9,0.8,1.3c0.3,0.5,0.6,1,0.8,1.5c0.4,0.6,0.8,1.2,1.1,1.8
	c0.4,0.6,0.7,1.3,1.1,1.9c0.5,0.9,1,1.7,1.5,2.6c0.4,0.6,0.7,1.2,1.1,1.8c0.2,0.4,0.5,0.8,0.7,1.2c0.4,0.6,0.7,1.2,1.1,1.8
	c0.2,0.4,0.5,0.8,0.8,1.3c0.3,0.5,0.6,1,0.9,1.5c0.4,0.6,0.7,1.2,1.1,1.8c0.3,0.5,0.6,1.1,0.9,1.6c0.4,0.7,0.9,1.5,1.3,2.2
	c0.3,0.4,0.5,0.9,0.8,1.3c0.2,0.4,0.4,0.7,0.6,1.1C40.8,41.6,40.9,41.8,41.1,42.2z M17.5,34.4C17.5,34.4,17.5,34.4,17.5,34.4
	c-3.9,0-7.9,0-11.8,0c-0.1,0-0.2,0-0.4,0c-0.1,0-0.2,0.1-0.1,0.2c0.1,0.2,0.2,0.4,0.3,0.5c0.4,0.6,0.7,1.2,1.1,1.8
	c0.4,0.6,0.7,1.2,1.1,1.9c0.3,0.5,0.5,1,0.9,1.5c0.4,0.6,0.9,1.2,1.7,1.5c0.4,0.2,0.8,0.3,1.2,0.4c0.2,0,0.4,0,0.6,0
	c7.3,0,14.6,0,21.8,0c0.1,0,0.3,0,0.4,0c0,0,0.1-0.1,0.1-0.1c-0.1-0.1-0.1-0.3-0.2-0.4c-0.2-0.3-0.4-0.6-0.5-0.9
	c-0.3-0.5-0.6-1-0.9-1.5c-0.2-0.4-0.5-0.8-0.7-1.2c-0.4-0.6-0.7-1.2-1-1.8c-0.3-0.6-0.7-1.1-1-1.7c-0.1-0.1-0.3-0.2-0.4-0.2
	C25.5,34.4,21.5,34.4,17.5,34.4z M17.4,28.6c2.8,0,5.7,0,8.5,0c0.1,0,0.2,0,0.3,0c0.1,0,0.2-0.1,0.1-0.2c-0.3-0.5-0.6-1.1-1-1.6
	c-0.4-0.6-0.8-1.3-1.1-1.9c-0.3-0.5-0.5-0.9-0.8-1.4c-0.3-0.5-0.6-1.1-0.9-1.6c-0.5-0.9-1-1.7-1.5-2.6c-0.5-0.9-1-1.7-1.5-2.6
	c-0.7-1.1-1.3-2.2-2-3.4c0-0.1-0.1-0.1-0.2-0.1c0,0-0.1,0.1-0.1,0.1c-0.2,0.4-0.4,0.8-0.7,1.1c-0.3,0.5-0.6,1-0.9,1.5
	c-0.4,0.7-0.9,1.5-1.3,2.2c-0.5,0.9-1,1.7-1.5,2.6c-0.3,0.6-0.7,1.2-1,1.8c-0.3,0.5-0.6,1.1-1,1.6c-0.3,0.6-0.7,1.2-1,1.8
	c-0.2,0.4-0.5,0.8-0.8,1.3c-0.2,0.3-0.3,0.5-0.5,0.8c-0.1,0.1-0.1,0.2-0.1,0.3c0.1,0,0.2,0.1,0.3,0.1C11.6,28.6,14.5,28.6,17.4,28.6
	z"/>
</svg>
